<svg width="24" height="24" viewBox="0 0 24 24" fill="none" xmlns="http://www.w3.org/2000/svg">
<path d="M6.5 22C8.433 22 10 20.433 10 18.5C10 16.567 8.433 15 6.5 15C4.567 15 3 16.567 3 18.5C3 20.433 4.567 22 6.5 22Z" stroke="#141B34" stroke-width="1.5"/>
<path d="M18 19C19.6569 19 21 17.6569 21 16C21 14.3431 19.6569 13 18 13C16.3431 13 15 14.3431 15 16C15 17.6569 16.3431 19 18 19Z" stroke="#141B34" stroke-width="1.5"/>
<path d="M10 18.5V6.99995C10 6.0765 10 5.61478 10.2635 5.32789C10.5269 5.04101 11.0175 4.99915 11.9986 4.91544C16.022 4.57217 18.909 3.26 20.3553 2.40973C20.6508 2.23595 20.7986 2.14907 20.8993 2.20667C21 2.26427 21 2.43145 21 2.76582V16" stroke="#141B34" stroke-width="1.5" stroke-linecap="round" stroke-linejoin="round"/>
<path d="M10 10C15.8667 10 19.7778 7.66667 21 7" stroke="#141B34" stroke-width="1.5" stroke-linecap="round" stroke-linejoin="round"/>
</svg>
