<svg width="24" height="24" viewBox="0 0 24 24" fill="none" xmlns="http://www.w3.org/2000/svg">
<path d="M12.056 22.75C13.894 22.75 15.35 22.75 16.489 22.597C17.661 22.439 18.61 22.107 19.359 21.359C20.107 20.61 20.439 19.661 20.597 18.489C20.75 17.35 20.75 15.894 20.75 14.056V10.536V10.535C20.751 9.837 20.751 9.284 20.541 8.776C20.33 8.268 19.939 7.877 19.444 7.383L14.548 2.488C14.122 2.061 13.786 1.724 13.358 1.519C13.27 1.477 13.179 1.439 13.087 1.407C12.64 1.249 12.164 1.249 11.56 1.25H11.408C9.826 1.25 8.573 1.25 7.581 1.366C6.562 1.485 5.723 1.734 5.019 2.302C4.755 2.515 4.515 2.755 4.302 3.019C3.734 3.723 3.485 4.562 3.366 5.581C3.25 6.573 3.25 7.826 3.25 9.408V14.057C3.25 15.894 3.25 17.35 3.403 18.489C3.561 19.661 3.893 20.61 4.641 21.359C5.39 22.107 6.339 22.439 7.511 22.597C8.65 22.75 10.106 22.75 11.944 22.75H12.056ZM7.711 21.11C6.705 20.975 6.125 20.721 5.702 20.298C5.279 19.875 5.025 19.295 4.89 18.289C4.752 17.261 4.75 15.907 4.75 14V9.456C4.75 7.815 4.751 6.65 4.856 5.755C4.958 4.876 5.152 4.355 5.47 3.96C5.615 3.78 5.78 3.615 5.96 3.47C6.355 3.152 6.876 2.958 7.755 2.856C8.65 2.751 9.815 2.75 11.456 2.75C11.842 2.75 12.083 2.753 12.25 2.763V3.055C12.25 4.423 12.25 5.525 12.366 6.392C12.488 7.292 12.746 8.05 13.348 8.652C13.95 9.254 14.708 9.512 15.608 9.634C16.475 9.75 17.577 9.75 18.945 9.75H19.233C19.247 9.942 19.25 10.219 19.25 10.657V14C19.25 15.907 19.248 17.261 19.11 18.289C18.975 19.295 18.721 19.875 18.298 20.298C17.875 20.721 17.295 20.975 16.289 21.11C15.262 21.248 13.907 21.25 12 21.25C10.093 21.25 8.739 21.248 7.711 21.11ZM7.25 17C7.25 17.414 7.586 17.75 8 17.75H16C16.414 17.75 16.75 17.414 16.75 17C16.75 16.586 16.414 16.25 16 16.25H8C7.586 16.25 7.25 16.586 7.25 17ZM18.188 8.249C17.174 8.245 16.412 8.228 15.808 8.147C15.074 8.048 14.686 7.868 14.409 7.591C14.132 7.314 13.952 6.926 13.853 6.192C13.772 5.588 13.755 4.826 13.751 3.812L18.188 8.249ZM7.25 13C7.25 13.414 7.586 13.75 8 13.75H12C12.414 13.75 12.75 13.414 12.75 13C12.75 12.586 12.414 12.25 12 12.25H8C7.586 12.25 7.25 12.586 7.25 13Z" fill="#141B34"/>
</svg>
