<svg width="25" height="24" viewBox="0 0 25 24" fill="none" xmlns="http://www.w3.org/2000/svg">
<path fill-rule="evenodd" clip-rule="evenodd" d="M18.7441 19.75C18.2141 19.75 17.8941 19.75 17.5641 19.61C17.1441 19.44 16.8041 19.1 16.6241 18.66C16.4941 18.35 16.4941 18.05 16.4941 17.5V6.5C16.4941 5.95 16.4941 5.65 16.6341 5.33C16.8041 4.9 17.1441 4.57 17.5841 4.39C17.8941 4.25 18.2141 4.25 18.7541 4.25C19.2941 4.25 19.6041 4.25 19.9341 4.39C20.3541 4.56 20.6941 4.9 20.8741 5.34C21.0041 5.65 21.0041 5.95 21.0041 6.5V17.5C21.0041 18.05 21.0041 18.35 20.8641 18.67C20.6941 19.1 20.3541 19.43 19.9141 19.61C19.6041 19.75 19.2841 19.75 18.7441 19.75ZM18.7441 5.75C18.4841 5.75 18.2241 5.75 18.1541 5.77C18.0841 5.8 18.0441 5.84 18.0141 5.9C17.9941 5.97 17.9941 6.24 17.9941 6.5V17.5C17.9941 17.76 17.9941 18.03 18.0141 18.1C18.0441 18.16 18.0841 18.2 18.1441 18.23C18.3041 18.28 19.2041 18.27 19.3341 18.23C19.4041 18.2 19.4441 18.16 19.4741 18.1C19.4941 18.03 19.4941 17.76 19.4941 17.5V6.5C19.4941 6.24 19.4941 5.97 19.4741 5.9C19.4441 5.84 19.4041 5.8 19.3441 5.77C19.2641 5.75 19.0041 5.75 18.7441 5.75ZM12.2441 19.75C11.7141 19.75 11.3941 19.75 11.0641 19.61C10.6441 19.44 10.3041 19.1 10.1241 18.66C9.99414 18.35 9.99414 18.05 9.99414 17.5V9.5C9.99414 8.95 9.99414 8.65 10.1341 8.33C10.3041 7.9 10.6441 7.57 11.0841 7.39C11.3941 7.25 11.7141 7.25 12.2541 7.25C12.7941 7.25 13.1041 7.25 13.4341 7.39C13.8541 7.56 14.1941 7.9 14.3741 8.34C14.5041 8.65 14.5041 8.95 14.5041 9.5V17.5C14.5041 18.05 14.5041 18.35 14.3641 18.67C14.1941 19.1 13.8541 19.43 13.4141 19.61C13.1041 19.75 12.7841 19.75 12.2441 19.75ZM12.2441 8.75C11.9841 8.75 11.7241 8.75 11.6541 8.77C11.5841 8.8 11.5441 8.84 11.5141 8.9C11.4941 8.97 11.4941 9.24 11.4941 9.5V17.5C11.4941 17.76 11.4941 18.03 11.5141 18.1C11.5441 18.16 11.5841 18.2 11.6441 18.23C11.8041 18.28 12.7041 18.27 12.8341 18.23C12.9041 18.2 12.9441 18.16 12.9741 18.1C12.9941 18.03 12.9941 17.76 12.9941 17.5V9.5C12.9941 9.24 12.9941 8.97 12.9741 8.9C12.9441 8.84 12.9041 8.8 12.8441 8.77C12.7641 8.75 12.5041 8.75 12.2441 8.75ZM4.56414 19.61C4.89414 19.75 5.21414 19.75 5.74414 19.75C6.28414 19.75 6.60414 19.75 6.91414 19.61C7.35414 19.43 7.69414 19.1 7.86414 18.67C8.00414 18.35 8.00414 18.05 8.00414 17.5V13.5C8.00414 12.95 8.00414 12.65 7.87414 12.34C7.69414 11.9 7.35414 11.56 6.93414 11.39C6.60414 11.25 6.29414 11.25 5.75414 11.25C5.21414 11.25 4.89414 11.25 4.58414 11.39C4.14414 11.57 3.80414 11.9 3.63414 12.33C3.49414 12.65 3.49414 12.95 3.49414 13.5V17.5C3.49414 18.05 3.49414 18.35 3.62414 18.66C3.80414 19.1 4.14414 19.44 4.56414 19.61ZM5.15414 12.77C5.22414 12.75 5.48414 12.75 5.74414 12.75C6.00414 12.75 6.26414 12.75 6.34414 12.77C6.40414 12.8 6.44414 12.84 6.47414 12.9C6.49414 12.97 6.49414 13.24 6.49414 13.5V17.5C6.49414 17.76 6.49414 18.03 6.47414 18.1C6.44414 18.16 6.40414 18.2 6.33414 18.23C6.20414 18.27 5.30414 18.28 5.14414 18.23C5.08414 18.2 5.04414 18.16 5.01414 18.1C4.99414 18.03 4.99414 17.76 4.99414 17.5V13.5C4.99414 13.24 4.99414 12.97 5.01414 12.9C5.04414 12.84 5.08414 12.8 5.15414 12.77Z" fill="#141B34"/>
</svg>
