<svg width="24" height="24" viewBox="0 0 24 24" fill="none" xmlns="http://www.w3.org/2000/svg">
<path d="M3 4.75C3 4.336 3.336 4 3.75 4H19.75C20.164 4 20.5 4.336 20.5 4.75C20.5 5.164 20.164 5.5 19.75 5.5H3.75C3.336 5.5 3 5.164 3 4.75ZM3 11.75C3 11.336 3.336 11 3.75 11H19.75C20.164 11 20.5 11.336 20.5 11.75C20.5 12.164 20.164 12.5 19.75 12.5H3.75C3.336 12.5 3 12.164 3 11.75ZM3.75 18H19.75C20.164 18 20.5 18.336 20.5 18.75C20.5 19.164 20.164 19.5 19.75 19.5H3.75C3.336 19.5 3 19.164 3 18.75C3 18.336 3.336 18 3.75 18Z" fill="#141B34"/>
</svg>
