<svg width="24" height="24" viewBox="0 0 24 24" fill="none" xmlns="http://www.w3.org/2000/svg">
<path fill-rule="evenodd" clip-rule="evenodd" d="M11.2845 14.994C11.2845 15.404 11.6245 15.744 12.0345 15.744H12.0544C12.4644 15.744 12.8044 15.404 12.8044 14.994V4.45398C13.8127 5.48857 15.0593 7.00743 15.3647 7.37952C15.4076 7.43182 15.432 7.46146 15.4344 7.46393C15.6944 7.78393 16.1644 7.83398 16.4844 7.57398C16.8044 7.31398 16.8545 6.84399 16.5945 6.52399C16.5883 6.51662 16.5744 6.49966 16.5534 6.47408C16.2326 6.08317 14.2583 3.6776 13.0945 2.66394C12.7945 2.40394 12.4444 2.26396 12.0744 2.24396C11.6544 2.22396 11.2644 2.37394 10.9244 2.66394C9.71735 3.70685 7.66171 6.23246 7.4409 6.50376C7.43304 6.51341 7.42751 6.52021 7.42442 6.52399C7.16442 6.84399 7.21447 7.31398 7.53447 7.57398C7.85447 7.83398 8.32445 7.78393 8.58445 7.46393C8.58686 7.46152 8.61101 7.43215 8.65367 7.38028C8.96526 7.00138 10.2641 5.4219 11.2845 4.38397V14.994ZM9.00488 21.7439H15.0049L14.9949 21.7539C17.4749 21.7539 18.8449 21.7539 19.7949 20.8039C20.7449 19.8539 20.7449 18.4839 20.7449 16.0039V15.0039C20.7449 13.4841 20.7449 12.7239 20.3949 12.0239C20.0849 11.4139 19.5949 10.9139 18.9749 10.6039C18.2849 10.2539 17.525 10.2539 16.0052 10.2539C15.5952 10.2539 15.2549 10.5939 15.2549 11.0039C15.2549 11.4139 15.5949 11.7539 16.0049 11.7539C17.2349 11.7539 17.9249 11.7539 18.2949 11.9439C18.6349 12.1139 18.8949 12.3839 19.0649 12.7139C19.2549 13.0839 19.2549 13.7639 19.2549 15.0039V16.0039C19.2549 18.3039 19.2349 19.2539 18.7449 19.7439C18.2549 20.2339 17.2949 20.2539 15.0049 20.2539H9.00488C6.70488 20.2539 5.75489 20.2339 5.26489 19.7439C4.77489 19.2539 4.75488 18.2939 4.75488 16.0039V15.0039C4.75488 13.7739 4.75489 13.0839 4.94489 12.7139C5.11489 12.3739 5.3849 12.1139 5.7149 11.9439C6.0849 11.7539 6.76488 11.7539 8.00488 11.7539C8.41488 11.7539 8.75488 11.4139 8.75488 11.0039C8.75488 10.5939 8.41488 10.2539 8.00488 10.2539C6.4851 10.2539 5.72485 10.2539 5.0249 10.6039C4.4149 10.9139 3.91486 11.4039 3.60486 12.0239C3.25488 12.7139 3.25488 13.4738 3.25488 14.9936V15.9939C3.25488 18.4739 3.2549 19.8439 4.2049 20.7939C5.1549 21.7439 6.52488 21.7439 9.00488 21.7439Z" fill="#141B34"/>
</svg>
