<svg width="24" height="24" viewBox="0 0 24 24" fill="none" xmlns="http://www.w3.org/2000/svg">
<path d="M20 15.5C20 19 17.799 20.284 16.8019 20.6679C15.9395 21 14.8562 21 12.6896 21C11.5534 21 10.9853 21 10.4566 20.8834C9.64995 20.7056 8.90001 20.3294 8.27419 19.7888C7.86398 19.4344 7.52311 18.9785 6.84137 18.0667L3.83738 14.0487C3.3758 13.4314 3.38907 12.5789 3.86965 11.9763C4.49772 11.1888 5.66877 11.1237 6.3797 11.8369L8.0011 13.4634V7.5" stroke="#141B34" stroke-width="1.5" stroke-linecap="round" stroke-linejoin="round"/>
<path d="M11.0008 5.5C11.0008 4.67157 10.3292 4 9.50079 4C8 4 8.00014 6 8 7.5M11.0008 5.5V3.5C11.0008 2.67157 11.6723 2 12.5008 2C13.3292 2 14.0008 2.67157 14.0008 3.5V5.5M11.0008 5.5L11 8M14.0008 5.5C14.0008 4.67157 14.6723 4 15.5008 4C16.3292 4 17.0008 4.67157 17.0008 5.5V7.5M14.0008 5.5V9.5011M17.0008 7.5C17.0008 6.67157 17.6723 6 18.5008 6C19.3292 6 20.0008 6.67157 20.0008 7.5C19.9988 10.1666 20.0159 12.8335 19.9879 15.5M17.0008 7.5V10" stroke="#141B34" stroke-width="1.5" stroke-linecap="round" stroke-linejoin="round"/>
</svg>
