<svg width="24" height="24" viewBox="0 0 24 24" fill="none" xmlns="http://www.w3.org/2000/svg">
<path fill-rule="evenodd" clip-rule="evenodd" d="M3.79779 19.9522C5.32777 21.4922 7.55775 21.4922 12.0076 21.4922H11.988C16.4379 21.4922 18.6678 21.4922 20.2078 19.9522C21.5778 18.5722 21.7078 16.5122 21.7378 13.7422C21.7478 13.3222 21.4078 12.9822 20.9978 12.9822C20.5878 12.9822 20.2478 13.3122 20.2478 13.7222C20.2178 16.5122 20.0478 17.9922 19.1578 18.8822C18.0679 19.9822 16.0379 19.9822 12.0081 19.9822C7.97832 19.9822 5.95776 19.9822 4.85779 18.8822C3.75781 17.7922 3.75781 15.7623 3.75781 11.7324C3.75781 7.70259 3.75781 5.68219 4.85779 4.58221C5.74779 3.69221 7.22782 3.52219 10.0178 3.49219C10.4278 3.48219 10.7578 3.14218 10.7578 2.73218C10.7578 2.32218 10.4178 1.99219 10.0078 1.99219C7.23781 2.02219 5.16779 2.15222 3.79779 3.52222C2.25781 5.06219 2.25781 7.30212 2.25781 11.742C2.25781 16.1819 2.25781 18.4122 3.79779 19.9522ZM10.4773 13.2722C10.6273 13.4222 10.8173 13.4922 11.0073 13.4922C11.1973 13.4922 11.3873 13.4222 11.5373 13.2722L20.2373 4.5722C20.2573 4.8922 20.2573 5.28219 20.2573 5.74219V9.74219C20.2573 10.1522 20.5973 10.4922 21.0073 10.4922C21.4173 10.4922 21.7573 10.1522 21.7573 9.74219V5.74219C21.7573 4.17232 21.7573 3.31213 21.0973 2.65216C20.4373 1.99219 19.5774 1.99219 18.0075 1.99219H14.0073C13.5973 1.99219 13.2573 2.33219 13.2573 2.74219C13.2573 3.15219 13.5973 3.49219 14.0073 3.49219H18.0073C18.4673 3.49219 18.8573 3.49221 19.1773 3.51221L10.4773 12.2122C10.1873 12.5022 10.1873 12.9822 10.4773 13.2722Z" fill="#141B34"/>
</svg>
